<svg width="193" height="252" xmlns="http://www.w3.org/2000/svg" xml:space="preserve" enable-background="new 0 0 193 252" version="1.1">

 <g>
  <title>Layer 1</title>
  <path id="svg_11" d="m23.39252,217.76894c0.05866,-7.4948 0.2758,-14.99322 0.10393,-22.48274c-0.07698,-3.35454 0.79397,-5.28258 3.98334,-6.98349c21.54667,-11.4908 42.94996,-23.25058 64.39055,-34.93999c1.58457,-0.8639 3.09792,-1.85846 5.00656,-3.01098c-16.79781,-8.94771 -33.1965,-17.69255 -49.60517,-26.41866c-6.90023,-3.66953 -13.87595,-7.20263 -20.68601,-11.03136c-1.31781,-0.7409 -2.8595,-2.55094 -2.88464,-3.89424c-0.22399,-11.96814 -0.13041,-23.94223 -0.13041,-36.82555c49.24713,26.49891 97.90237,52.67934 147.16333,79.18569c-11.72909,6.38298 -23.03452,12.52422 -34.32963,18.68437c-32.07969,17.49568 -64.15518,34.99912 -96.83096,52.76256c-2.06596,1.16937 -3.5333,2.07567 -5.00064,2.98198c-0.92631,0.37198 -1.85261,0.74396 -3.32472,1.44936c-2.27738,1.38974 -4.00894,2.44607 -6.13758,3.52667c-0.83425,-1.30834 -1.27144,-2.64093 -1.63694,-4.42026c0.02078,-3.15893 -0.03012,-5.87115 -0.08101,-8.58336z" fill="#00ADB5"/>
  <path id="svg_12" d="m23.36984,22.26541c0.42554,-1.46071 0.91974,-2.45795 1.80052,-3.44324c16.48266,8.67673 32.54984,17.39572 48.68092,25.99483c32.13432,17.13007 64.30377,34.19425 96.89272,51.51635c-11.41157,6.30917 -22.4107,12.51337 -33.57812,18.39818c-1.29682,0.68339 -3.76636,0.05702 -5.28822,-0.73672c-35.10131,-18.3072 -70.12837,-36.75682 -105.24168,-55.04082c-2.43939,-1.27021 -3.27002,-2.56321 -3.23001,-5.25483c0.15342,-10.32131 0.04393,-20.64652 -0.03613,-31.43375z" fill="#3F72AF"/>
 </g>
</svg>